<svg xmlns="http://www.w3.org/2000/svg" viewBox="0 0 956.34 956.34"><defs><style>.cls-1,.cls-5{fill:#85d0ee;}.cls-2{fill:#cdcccc;}.cls-3{fill:#1a2340;}.cls-4{fill:#808181;}.cls-5{fill-rule:evenodd;}.cls-6{fill:#fec926;}.cls-7{fill:#eb5b28;}.cls-8{fill:#f0823a;}.cls-9{fill:#b4b4b4;}.cls-10{fill:#e7e6e6;}</style></defs><title>Fichier 2</title><g id="Calque_2" data-name="Calque 2"><g id="Campagne_-_Couleur" data-name="Campagne - Couleur"><path class="cls-1" d="M657.3,54.12A460.33,460.33,0,0,0,299,902.22,460.33,460.33,0,0,0,657.3,54.12Z"/><path class="cls-2" d="M478.17,956.34A478.29,478.29,0,0,1,292,37.58,478.29,478.29,0,0,1,664.3,918.76,475.14,475.14,0,0,1,478.17,956.34ZM478.17,9A469.3,469.3,0,0,0,295.55,910.47,469.29,469.29,0,0,0,660.79,45.87,466.12,466.12,0,0,0,478.17,9Z"/><path class="cls-3" d="M478.17,947.38A469.33,469.33,0,0,1,295.53,45.83,469.33,469.33,0,0,1,660.81,910.51,466.25,466.25,0,0,1,478.17,947.38Zm0-929.42A460.33,460.33,0,0,0,299,902.22,460.33,460.33,0,0,0,657.3,54.12,457.23,457.23,0,0,0,478.17,18Z"/><path class="cls-3" d="M779.35,351A328,328,0,1,0,805,478.17,325.83,325.83,0,0,0,779.35,351Z"/><path class="cls-3" d="M478.2,143.34C663.12,143.34,813,293.25,813,478.17S663.12,813,478.2,813,143.36,663.09,143.36,478.17,293.27,143.34,478.2,143.34m0-9a342.73,342.73,0,1,0,133.84,27,341.68,341.68,0,0,0-133.84-27Z"/><polygon class="cls-3" points="323.88 101 289.15 91.52 311.18 145.31 322.13 140.82 309.22 109.28 319.02 111.93 329.56 114.85 335.01 105.39 340.15 96.62 353.06 128.16 364.02 123.67 341.99 69.88 323.88 101"/><rect class="cls-3" x="364.18" y="64.63" width="11.84" height="57.11" transform="translate(-11.42 103.31) rotate(-15.65)"/><path class="cls-3" d="M435.7,78.41a3.7,3.7,0,0,1-.29-.24c-.14-.12-.28-.24-.41-.33a18.35,18.35,0,0,0-14.36-3.74l-19.58,3.19A4.09,4.09,0,0,1,396.43,74l-.05-.31A4.08,4.08,0,0,1,399.71,69l22.07-3.59a4,4,0,0,1,3,.72,4,4,0,0,1,1.64,2.61l.21,1.31,11.67-2-.21-1.29a15.91,15.91,0,0,0-18.22-13.12L397.8,57.24a15.86,15.86,0,0,0-13,18.21l.05.32a15.52,15.52,0,0,0,4.16,8.4,15.13,15.13,0,0,0,2.41,2.18A15.77,15.77,0,0,0,403,89l19.58-3.19a6.59,6.59,0,0,1,4.92,1.15A6.45,6.45,0,0,1,429,96.08a6.59,6.59,0,0,1-4.31,2.65l-17,2.77a6.56,6.56,0,0,1-7.53-5.42l-.16-1L388.26,97l.16,1a18.44,18.44,0,0,0,18.15,15.44,18.77,18.77,0,0,0,3-.24l17-2.77a18.39,18.39,0,0,0,9.14-32Z"/><path class="cls-3" d="M490.26,50l-22.35-.37h-.26a15.65,15.65,0,0,0-11,4.49,15.81,15.81,0,0,0-4.8,11.14v.31a15.61,15.61,0,0,0,2.61,9,15.14,15.14,0,0,0,2,2.57,15.69,15.69,0,0,0,10.93,4.63l19.84.33a6.65,6.65,0,0,1,4.65,2,6.46,6.46,0,0,1-.15,9.26,6.6,6.6,0,0,1-4.6,1.85H487L469.77,95a6.56,6.56,0,0,1-6.45-6.66v-1l-11.84-.2v1a18.41,18.41,0,0,0,18.1,18.7l17.23.28h.31A18.4,18.4,0,0,0,505.51,89a18.51,18.51,0,0,0-4-11.72l-.07-.07-.25-.29a5,5,0,0,0-.33-.4,18.37,18.37,0,0,0-13.48-6.21L467.58,70a4,4,0,0,1-2.83-1.24,4,4,0,0,1-1.15-2.86v-.31a4.08,4.08,0,0,1,4-4h.06l22.36.37a4.08,4.08,0,0,1,4,4.1l0,1.32,11.84.1,0-1.3A15.91,15.91,0,0,0,490.26,50Z"/><rect class="cls-3" x="494.34" y="74.96" width="57.11" height="11.84" transform="translate(384.64 591.61) rotate(-83.65)"/><path class="cls-3" d="M590.3,72.86A28.54,28.54,0,1,0,559.92,116,28.53,28.53,0,0,0,594,94.39,28.38,28.38,0,0,0,590.3,72.86Zm-40.42,11.6a16.78,16.78,0,0,1,16.29-13,17.15,17.15,0,0,1,3.68.41,16.71,16.71,0,1,1-20,12.64Z"/><polygon class="cls-3" points="655.85 87.98 642.93 119.52 621.52 82.57 614.26 70.1 592.28 123.75 603.24 128.23 616.07 96.92 637.48 133.86 644.74 146.34 666.77 92.55 655.85 87.98"/><path class="cls-3" d="M243.8,834.82,235,829.58l40.21-31a10,10,0,0,1,6.34-2.41,14.08,14.08,0,0,1,6.77,2.24,13.87,13.87,0,0,1,5.13,4.85,9.68,9.68,0,0,1,.83,6.68l-8.76,49.76-8.86-5.27,8-45a2.58,2.58,0,0,0-1.3-2.88,2.72,2.72,0,0,0-3.23.18Z"/><path class="cls-3" d="M341.71,825.66a20.69,20.69,0,0,1,6.63,4.15,15,15,0,0,1,3.58,5.23,13.59,13.59,0,0,1,.9,5.87,18.72,18.72,0,0,1-1.42,6,20.48,20.48,0,0,1-3.12,5.18,14.51,14.51,0,0,1-4.78,3.81,15.26,15.26,0,0,1-6.38,1.53,18.83,18.83,0,0,1-7.89-1.65L314,849.44a1.18,1.18,0,0,0-1.75.72l-7.35,17.75-8.58-3.56,8-19.42q1.73-4.14,4.29-5.21c1.72-.71,3.93-.5,6.65.62l17.67,7.33a8.24,8.24,0,0,0,3.37.71,6.18,6.18,0,0,0,2.74-.65,7.07,7.07,0,0,0,2.09-1.65,8.48,8.48,0,0,0,1.44-2.34,7.55,7.55,0,0,0,.28-5.3c-.56-1.73-2-3.09-4.33-4.05L313,823.81l3.56-8.58Z"/><path class="cls-3" d="M391,841.12q11.31,2.82,15.7,10.73t1.14,21q-3.24,13-10.82,17.83t-18.88,2l-7-1.75q-11.31-2.82-15.72-10.66t-1.17-20.82q3.25-13.05,10.85-18t18.9-2.1Zm-9.28,7.26q-7.49-1.87-11.87,1.25t-6.62,12.06q-2.22,8.87.18,13.6t9.95,6.62l7,1.75q7.41,1.85,11.79-1.24t6.59-11.94q2.22-8.87-.15-13.67t-9.86-6.68Z"/><path class="cls-3" d="M430.27,848.39l-3.55,34.54a12,12,0,0,0,.14,3.61,6.62,6.62,0,0,0,1.46,3.08,8.72,8.72,0,0,0,3.13,2.26,16.48,16.48,0,0,0,5.14,1.24l20.52,2.11-.95,9.24-21.07-2.16a26.16,26.16,0,0,1-8.83-2.3,16,16,0,0,1-5.67-4.42,14.55,14.55,0,0,1-2.82-6.1,24,24,0,0,1-.3-7.44L421,847.44Z"/><path class="cls-3" d="M474.54,851.43l.57,34.71a12.24,12.24,0,0,0,.57,3.57,6.6,6.6,0,0,0,1.82,2.89,8.72,8.72,0,0,0,3.37,1.87,16.35,16.35,0,0,0,5.25.62l20.62-.33.15,9.29-21.17.34a26.06,26.06,0,0,1-9-1.23,16.06,16.06,0,0,1-6.16-3.72,14.57,14.57,0,0,1-3.52-5.73,24.22,24.22,0,0,1-1.18-7.34l-.56-34.79Z"/><path class="cls-3" d="M538.65,846.47q11.51-1.77,18.62,3.84t9.14,18.91q2,13.23-3.09,20.62T546.68,899l-7.16,1.09q-11.52,1.75-18.62-3.76t-9.11-18.76q-2-13.3,3.07-20.78t16.63-9.23Zm-5.76,10.27q-7.62,1.17-10.47,5.75T521,876.17q1.38,9,5.41,12.47t11.73,2.27l7.16-1.1q7.54-1.15,10.4-5.69t1.47-13.56q-1.38-9-5.42-12.55t-11.67-2.36Z"/><path class="cls-3" d="M629.13,820.23l3.25,8.7-20.5,7.66q-7.23,2.7-9.09,7.73T604.16,858q3.2,8.55,7.86,11.14t12-.15l8.26-3.08c2.46-.92,4-2.24,4.58-3.94a8.21,8.21,0,0,0-.27-5.66,7.14,7.14,0,0,0-3.26-4.12,6.34,6.34,0,0,0-5.23.06L617,856.36l-2.84-7.6,12-4.46q6.71-2.5,11.37.08t7.09,9.07a22.48,22.48,0,0,1,1.43,6.4,13.69,13.69,0,0,1-.88,6,14,14,0,0,1-3.56,5.11,19.65,19.65,0,0,1-6.66,3.88l-7.67,2.86q-10.9,4.08-19,.09t-12.78-16.53q-4.71-12.62-1.22-20.93t14.4-12.4Z"/><path class="cls-3" d="M647.06,811l23.48,47.67-8.33,4.1-23.49-47.66Z"/><path class="cls-3" d="M691.55,785.09l4.86,7.92-18.24,11.2a16.79,16.79,0,0,0-4.13,3.37,8.73,8.73,0,0,0-1.87,3.41,6.79,6.79,0,0,0,0,3.35,11.46,11.46,0,0,0,1.4,3.25l2.64,4.29,27.3-16.77,4.61,7.51-27.3,16.77,11,17.91-7.91,4.87-18.21-29.65a23.88,23.88,0,0,1-2.95-6.83,14.55,14.55,0,0,1-.11-6.72,16,16,0,0,1,3.2-6.45,26,26,0,0,1,7-5.89Z"/><polygon class="cls-4" points="234.72 551.77 238.72 538.18 252.66 535.6 239.06 531.6 236.49 517.66 232.48 531.25 218.55 533.83 232.14 537.84 234.72 551.77"/><polygon class="cls-4" points="367.18 257.47 371.7 242.1 387.46 239.19 372.09 234.66 369.18 218.9 364.65 234.27 348.89 237.19 364.26 241.72 367.18 257.47"/><polygon class="cls-4" points="404.19 741.3 408.72 725.93 424.48 723.01 409.11 718.48 406.19 702.73 401.66 718.1 385.9 721.01 401.28 725.54 404.19 741.3"/><polygon class="cls-4" points="204.6 485.81 212.54 484.34 204.8 482.06 203.33 474.13 201.05 481.87 193.12 483.34 200.86 485.62 202.32 494.73 204.6 485.81"/><polygon class="cls-4" points="567.34 752.16 575.27 750.69 567.53 748.41 566.06 740.48 563.78 748.22 555.85 749.69 563.59 751.97 565.06 761.08 567.34 752.16"/><polygon class="cls-4" points="738.92 390.67 746.09 389.35 739.1 387.29 737.77 380.12 735.71 387.11 728.55 388.44 735.54 390.5 736.87 398.73 738.92 390.67"/><polygon class="cls-4" points="420.81 199.4 427.88 198.1 420.98 196.07 419.68 189 417.65 195.9 410.59 197.2 417.48 199.23 418.78 207.35 420.81 199.4"/><polygon class="cls-4" points="720.02 335.45 730.38 333.54 720.27 330.56 718.35 320.2 715.38 330.31 705.02 332.22 715.12 335.2 717.04 347.1 720.02 335.45"/><polygon class="cls-4" points="730.55 566.49 734.66 544.13 748.95 541.49 735.01 537.38 732.37 514.66 728.26 537.03 713.97 539.67 727.91 543.78 730.55 566.49"/><polygon class="cls-4" points="479.22 475.05 483.33 452.68 497.62 450.04 483.68 445.94 481.04 423.22 476.93 445.59 462.64 448.23 476.58 452.33 479.22 475.05"/><polygon class="cls-4" points="575.02 222.38 577.02 211.46 584 210.16 577.19 208.16 575.9 197.06 573.9 207.99 566.92 209.28 573.73 211.28 575.02 222.38"/><polygon class="cls-4" points="435.51 765.55 437.52 754.63 444.5 753.33 437.69 751.33 436.4 740.23 434.39 751.16 427.41 752.45 434.22 754.46 435.51 765.55"/><path class="cls-5" d="M468.62,535.28l7.29-20.7s-18.53,6.86-34.31,1C441.6,515.61,466.89,524.92,468.62,535.28Z"/><path class="cls-1" d="M564.52,609a98.65,98.65,0,0,0-4-16.39l-1.32-4c-.48-1.33-1.06-2.62-1.58-3.93L556,580.7l-1.9-3.81a110,110,0,0,0-19.79-27.65A112.38,112.38,0,0,0,495,523.63q-.81,3.35-1.69,6.67c-.52,2-1.08,4-1.63,5.92a98.45,98.45,0,0,1,54.7,44.84l1.94,3.4L550,588c.55,1.19,1.16,2.35,1.66,3.55l1.42,3.66a90.28,90.28,0,0,1,4.53,15,102.32,102.32,0,0,1,1.76,31.49,104,104,0,0,1-50.22,78.53A105.88,105.88,0,0,0,554.43,674a107,107,0,0,0,10.09-65Z"/><path class="cls-1" d="M485.13,576.78a.5.5,0,0,1,0,.12.64.64,0,0,1,0,.2.78.78,0,0,1,0,.16c0,.08,0,.17,0,.27a1.41,1.41,0,0,1,0,.2,2.51,2.51,0,0,1,0,.37,1.64,1.64,0,0,1,0,.22c0,.21-.06.45-.11.72-.5,2.46-1.25,2-2.52,2.77s-.21,1.81,2,1.88,4.08-1.9,4.71-2.69a.76.76,0,0,0,.13-.23s0,0,0-.06a1.42,1.42,0,0,0,0-.22v0c.05-.45,0-1,0-1.44C488,578.21,486.58,577.47,485.13,576.78Z"/><path class="cls-1" d="M514.49,609.41c-4.82.82-6.79-4.08-7.74-4.44h0a.19.19,0,0,0-.18,0c-.89.41.57,2.18,1.53,4.35s4,1.45,4.58,2.86-3.1,5.1-5.69,5-5.73-7.73-5.92-10.3-1.18-6.17-2.62-7.17-4.16-1.44-3.56-3.14,6-.91,5.9-1.68-5.83-.77-6.59-.23-1.19,4-2.76,3.19-2.9-2.41-3.53-2-1.63,2.1-2.27,2.15-1.69-.38-1.58-1.41,1.92-.57,2.16-1.35-3.95-3.26-5-3.88,0,0-1,.42-2.19-.08-3.46,1.11-1.1,2.35-1.72,3.39-3.17,2.53-3.87,1.9-3.72-.81-3.35-1.59-.5-4.64.52-5.31,4.41,1.19,5.43.52.26-2-.06-2.71c-.48-1-1.84-1.24-1.35-2.16s.08-2.19-1.87-2.92-4-.81-3.06-2.25,2.17-2.63,3.17-3.95,1.16.1,1.71,1.51q.11.25.24.54s.05.09.08.14l.25.46,0,.07a17.54,17.54,0,0,1,1.83,3.51c.09.4.3.54.58.53a1.14,1.14,0,0,0,.24-.05l.06,0,.2-.08.07,0,.28-.14.05,0,.25-.16.09-.05.27-.18,0,0,.37-.26.22-.15.14-.1.34-.23c1.4-.94,2.29-1.22,2.9-2.78s-.57-2-2.63-2.13a2.15,2.15,0,0,1-.67-.13,1.53,1.53,0,0,1-.21-.14,1.27,1.27,0,0,1-.27-.18,2,2,0,0,1-.16-.24c0-.08-.11-.15-.14-.23a2.11,2.11,0,0,1-.09-.36,2.27,2.27,0,0,1-.06-.25c0-.15,0-.31,0-.48a1.92,1.92,0,0,0,0-.24c0-.19.05-.38.08-.58l0-.22c0-.22.1-.45.16-.68,0-.06,0-.12.05-.19s.12-.38.19-.57a56.88,56.88,0,0,0-30.23-.71c-.35.84-1.19,2.87-1.83,5-.84,2.73-2.54,1.61-3.48.08a13.57,13.57,0,0,0-2.14-2.64,56.77,56.77,0,0,0-11.28,6.1c-.24.61-.3,1.34.51,1.23,1.28-.16,2.77-2.61,3.17-2.05s.44,2.35,1.5,3.62,2.37,2,1.36,2.93-.1,1.3,1,2.56,1.23,2.94-1.37,2.1-5.72-1.41-6.07,0-1.87,2.38-3.23,5-5.74,8.2-5.93,11,0,4.39-1.08,3.51-1.85-2-3.38-1.34-4.49,1.14-3.91,3.83,1.22,2.43,2.22,1.24,2.57-.72,2.34.78,1,3.78,1.95,5.83,2.41,3.81,1,2.94a16.17,16.17,0,0,1-4.87-4.14c-1.2-1.78-4.78-.4-5.22-2.71a30.5,30.5,0,0,0-1.93-6.28,57.07,57.07,0,0,0,31,68.66c-.42-1.85-.61-4.54.69-5.17s4.23-1.13,4.67,1a9.2,9.2,0,0,0,1.25,2.74l.09.13c.15.25.31.5.48.74l.15.22.53.76.2.28.37.51.53.73.09.12.34.51a3.37,3.37,0,0,1,.17.32,1.15,1.15,0,0,1,.06.17l0,.12s0,.09,0,.13A56.24,56.24,0,0,0,459,685.33c-.08-.47.18-1,1.73-1.61a37.6,37.6,0,0,0,6-2.59c3.06-1.62,6.79-1.79,9.76-2s5.46-2.06,7.59-.72a5.33,5.33,0,0,0,3,.5,57,57,0,0,0,27.42-69.48Zm-67.13,28.71c-2.75,3.67-.2,2.45-.75,6.46s-3.55,2.8-5.58,4-1.49,2.35-3.17,5.88-2.56,2.77-3.93,4.73-1.21,3.39-1.54,6,5.06,6.33,1.15,4.87-6.35-6.69-6.77-13.38-.27-11.22-1.88-14-3.7-3.78-5.19-6.84-1.15-4.62-.16-6.52A6,6,0,0,0,420,625c-.2-.74,1-2.72,2.41-3.91s3.82.16,6.57,1.9,4.3,1.45,6.41,3.59,2,1.76,3.17,3.15,3.65,1.46,6.13,2.82S450.11,634.44,447.36,638.12ZM481,593.84c1.19,1.13.31,1.93-.47,1.71S480.25,593.12,481,593.84Zm26.88,45.28a27.9,27.9,0,0,1-3.29,8.08c-1.49,2.49-2.13,2.37-2.68,1.1s1.59-3.78,2.57-5.74l0-1.68c0-1.67,2.36-3.92,3.36-5.11S508.22,637.05,507.88,639.12Zm.88-17.17c-.2,2.19-4.84,8-4.52,10.42a22.79,22.79,0,0,1,.14,5.93c-.22,1.69-1.87,2.89-2.57,6s-.83,2.86-3.21,5.88-7.37,4.82-7.52,3.66-2.82-4.45-4.7-8a6.62,6.62,0,0,1-.4-.91l-.08-.23a7.21,7.21,0,0,1-.25-.91h0a7.5,7.5,0,0,1-.14-.95c0-.07,0-.14,0-.21-.21-2.65.59-5.24.64-6.71.08-2.07-2.55-4.45-2.61-6.77s-2.43-4.72-4.74-4.28a31.93,31.93,0,0,1-8.64.21c-2.46-.33-6.17-4.24-6.87-6.8s-.37-9.93.88-11.76,3.16-2.4,3.46-4.73,1.84-3,2.81-2.78c1.69.48,8.09-1.35,9.77-1.39,1.28,0,3.76,2,5.73,3.56l.81.62,0,0c.27.2.53.38.76.53,2,1.24,3.73-.22,5,.52s6,1.15,6.41,3.59,4.62,10.08,5.82,11.73S509,619.75,508.76,622Z"/><path class="cls-1" d="M422.11,591c.64-.15-.19-2.45.44-3.37s2.4-1.84,2.23-3.64q-2.13,1.72-4.08,3.65C420.91,589,421.54,591.12,422.11,591Z"/><path class="cls-1" d="M503.13,591.35l0,0c.06.13.1.26.15.39l0,.08c0,.13.09.25.14.37l0,.07.12.32,0,.1c0,.09.06.18.09.26s0,.07,0,.11l.06.2s0,.07,0,.11a1,1,0,0,1,0,.17.19.19,0,0,1,0,.07,1.15,1.15,0,0,1,0,.16c0,.64.52,5.4,2.45,5.23a.8.8,0,0,0,.32-.09l.09-.06.16-.11.12-.18a.35.35,0,0,0,0-.08,5.72,5.72,0,0,0-.19-3.38.25.25,0,0,1,0-.07l-.06-.2a57.59,57.59,0,0,0-4.56-5.52C502.55,589.9,502.85,590.63,503.13,591.35Z"/><polygon class="cls-6" points="612.46 283.26 618.7 298.34 634.96 299.62 622.55 310.21 626.37 326.07 612.46 317.54 598.55 326.07 602.36 310.21 589.95 299.62 606.22 298.34 612.46 283.26"/><polygon class="cls-6" points="647.72 348.94 653.96 364.02 670.22 365.3 657.81 375.89 661.63 391.75 647.72 383.22 633.81 391.75 637.62 375.89 625.21 365.3 641.48 364.02 647.72 348.94"/><polygon class="cls-6" points="684.32 414.62 690.56 429.7 706.82 430.98 694.41 441.57 698.23 457.43 684.32 448.9 670.41 457.43 674.22 441.57 661.81 430.98 678.08 429.7 684.32 414.62"/><path class="cls-7" d="M338.63,288.59l-1.82,5.85c-6.57-.39-13.19-.45-19.75-.93l18.38,5.36-2,6.3s14.48-5.36,27.33-1.29C356.15,302.23,339.87,296,338.63,288.59Z"/><path class="cls-7" d="M360.81,303.88l1.25.43Z"/><path class="cls-7" d="M233.49,338.63a83.47,83.47,0,0,1,42.89-39.85A85.5,85.5,0,0,1,306,292.52a85.44,85.44,0,0,0-57.09,19.75,87,87,0,0,0-30.47,53.59,81.08,81.08,0,0,0-1,15.88l0,2a16.47,16.47,0,0,0,.09,2l.4,4a70.85,70.85,0,0,0,1.24,7.92,87.91,87.91,0,0,0,12,29.81,91.82,91.82,0,0,0,51.2,38.65l7.77-13.05-4.14-.61a78.31,78.31,0,0,1-25.66-11.21,80.23,80.23,0,0,1-20.37-19.69,78.1,78.1,0,0,1-12.19-25.9,61.58,61.58,0,0,1-1.53-7.08l-.57-3.59a13.73,13.73,0,0,1-.2-1.81l-.13-1.81a74.88,74.88,0,0,1,.09-14.59A80.76,80.76,0,0,1,233.49,338.63Z"/><path class="cls-8" d="M265.19,385.66a40.19,40.19,0,0,1-2.07-10c2.45,2.29,6.95,5.28,16.09,7.42,10.37,2.43,12.33,2.21,26.91,6.62s20.43,1,26.93,1.32a32.73,32.73,0,0,0,6.27-.27,39,39,0,0,1-2.51,4.28C323.57,397.3,297.64,399.3,265.19,385.66Z"/><path class="cls-7" d="M322.68,407.9A40.34,40.34,0,0,1,267.48,391C271.42,393.81,289.05,405.11,322.68,407.9Z"/><path class="cls-7" d="M263,370.73a41.61,41.61,0,0,1,.63-5.52c6.56,3,35.55,14.64,80,6.92,0,.13,0,.25,0,.37A40.06,40.06,0,0,1,341,386.92C287,389.68,263,370.73,263,370.73Z"/><path class="cls-8" d="M310.85,356c17,0,25.95,2.27,30.8,3.93a40.31,40.31,0,0,1,1.91,9.69c-48.16.84-75-17.54-75-17.54.59-1,1.24-2,1.91-2.91C275.08,350.63,292.82,356,310.85,356Z"/><path class="cls-7" d="M272.24,346.81a40.45,40.45,0,0,1,11.26-9.43c3.37,1.62,12.78,5.67,29.24,9.29h0l2.68.57.12,0,2.75.55.17,0c.89.18,1.8.34,2.72.51l.35.07,2.68.46.51.09,2.63.43.69.11,2.59.38.85.13,2.76.37.8.11,2.28.29a39.7,39.7,0,0,1,3.22,6.13c-6.6-.82-13.9-2.94-27.76-2.94S281.9,350.53,272.24,346.81Z"/><path class="cls-8" d="M308.82,332.55h0c.61.08,1.21.18,1.81.29h.08c1.2.23,2.39.5,3.56.83h0l.2.06h0c.56.16,1.11.34,1.66.52l.15.05h0c1.08.37,2.15.79,3.2,1.25h0l.33.14h0a34.54,34.54,0,0,1,3.1,1.56l.27.14h0c.41.23.81.46,1.2.71h0l.13.08c.48.3.95.6,1.42.92h0l.43.3h0l1.06.76h0l0,0c.58.44,1.14.89,1.7,1.35l.2.18h0l.92.8h0l0,0c.41.37.81.74,1.2,1.12h0c-1.28.05-2.52.07-3.74.09h-1c-1.08,0-2.15,0-3.19,0h-.38c-1.13,0-2.22-.06-3.3-.1l-1-.05c-.87,0-1.72-.09-2.56-.15l-.65,0c-1-.07-1.93-.16-2.86-.26l-.95-.1c-.27,0-.56-.05-.83-.09h0A77.36,77.36,0,0,1,286,336.05a40.32,40.32,0,0,1,22.78-3.5Z"/><path class="cls-9" d="M480,308.06l-5.5,15.45a403.13,403.13,0,0,1-22.3,51.18L348.89,573.12a118.45,118.45,0,0,0-7.83,19c-.52,1.63-1,3.28-1.43,4.91-.88,3.26-1.62,6.61-2.22,10s-1,6.73-1.35,10.1a118.9,118.9,0,0,0-.08,20.41c.14,1.68.32,3.4.53,5.1.43,3.41,1,6.82,1.73,10.16l11.45,53.19-87.94-89.76,5.7-10.58L480,210.6Z"/><polygon class="cls-2" points="479.9 266.19 300.93 598.73 261.75 616.16 480.03 210.6 479.9 266.19"/><path class="cls-10" d="M336.51,642.57c.43,3.41,1,6.82,1.73,10.16l11.45,53.19L300.93,598.73l179-332.54.13,41.87-5.5,15.45a403.13,403.13,0,0,1-22.3,51.18L348.89,573.12a118.45,118.45,0,0,0-7.83,19c-.52,1.63-1,3.28-1.43,4.91-.88,3.26-1.62,6.61-2.22,10s-1,6.73-1.35,10.1a118.9,118.9,0,0,0-.08,20.41C336.12,639.15,336.3,640.87,336.51,642.57Z"/><path class="cls-9" d="M480,308.06l5.49,15.45a404.62,404.62,0,0,0,22.31,51.18L611.17,573.12a119.38,119.38,0,0,1,7.83,19c.51,1.63,1,3.28,1.43,4.91.87,3.26,1.62,6.61,2.21,10s1.05,6.73,1.35,10.1a118.9,118.9,0,0,1,.09,20.41c-.14,1.68-.32,3.4-.53,5.1-.43,3.41-1,6.82-1.73,10.16l-11.45,53.19,87.93-89.76-5.69-10.58L480,210.6Z"/><polygon class="cls-10" points="480.15 266.19 659.13 598.73 698.3 616.16 480.03 210.6 480.15 266.19"/><path class="cls-2" d="M623.55,642.57c-.43,3.41-1,6.82-1.73,10.16l-11.45,53.19,48.76-107.19-179-332.54L480,308.06l5.49,15.45a404.62,404.62,0,0,0,22.31,51.18L611.17,573.12a119.38,119.38,0,0,1,7.83,19c.51,1.63,1,3.28,1.43,4.91.87,3.26,1.62,6.61,2.21,10s1.05,6.73,1.35,10.1a118.9,118.9,0,0,1,.09,20.41C623.94,639.15,623.76,640.87,623.55,642.57Z"/></g></g></svg>